<?xml version="1.0" encoding="utf-8"?>
<!DOCTYPE svg PUBLIC "-//W3C//DTD SVG 1.1//EN"  "http://www.w3.org/Graphics/SVG/1.1/DTD/svg11.dtd">
<svg version="1.1" xmlns="http://www.w3.org/2000/svg" xmlns:xlink="http://www.w3.org/1999/xlink" font-family="Arial" font-size="11" width="923" height="472">
	<desc>BPMN2 diagram model</desc>
	<g id="_Z4mVA7FiEealN5YbbDMqoA">
		<defs>
			<linearGradient id="greyGradient" x1="0%" y1="0%" x2="0%" y2="100%" spreadMethod="pad">
				<stop offset="0%" stop-color="#FFF" stop-opacity="1" />
				<stop offset="100%" stop-color="#E5E5E5" stop-opacity="1" />
				
			</linearGradient>
			<linearGradient id="packageGradient" x1="0%" y1="0%" x2="0%" y2="100%" spreadMethod="pad">
				<stop offset="0%" stop-color="#FFF" stop-opacity="1" />
				<stop offset="100%" stop-color="#EFE9DE" stop-opacity="1" />
				
			</linearGradient>
			<linearGradient id="EndEvent" x1="0%" y1="0%" x2="0%" y2="100%" spreadMethod="pad">
				<stop offset="0%" stop-color="#E59492" stop-opacity="1" />
				<stop offset="100%" stop-color="#F27572" stop-opacity="1" />
				
			</linearGradient>
			<linearGradient id="StartEvent" x1="0%" y1="0%" x2="0%" y2="100%" spreadMethod="pad">
				<stop offset="0%" stop-color="#60E496" stop-opacity="1" />
				<stop offset="100%" stop-color="#31A761" stop-opacity="1" />
				
			</linearGradient>
			<linearGradient id="DataObjectReferenceWidget" x1="0%" y1="0%" x2="0%" y2="100%" spreadMethod="pad">
				<stop offset="0%" stop-color="#FFF" stop-opacity="1" />
				<stop offset="100%" stop-color="#F5FFFE" stop-opacity="1" />
				
			</linearGradient>
			<linearGradient id="IntermediateEvent" x1="0%" y1="0%" x2="0%" y2="100%" spreadMethod="pad">
				<stop offset="0%" stop-color="#F5F7F9" stop-opacity="1" />
				<stop offset="100%" stop-color="#D9EDF7" stop-opacity="1" />
				
			</linearGradient>
			<linearGradient id="TaskWidget" x1="0%" y1="0%" x2="0%" y2="100%" spreadMethod="pad">
				<stop offset="0%" stop-color="#F5F7F9" stop-opacity="1" />
				<stop offset="100%" stop-color="#D9EDF7" stop-opacity="1" />
				
			</linearGradient>
			
		</defs>
		<g id="_clW_cJOQEDSJ0-fnOEkhXA" transform="translate(50 20)">
			<rect fill-opacity="0.5" x="0" y="0" width="833" height="412" rx="0" ry="0" fill="#fff" stroke="#ADADAD" stroke-width="1" />
			<line x1="31" y1="0" x2="31" y2="412" stroke-width="1.0" stroke="#ADADAD" />
			<text x="-206" y="20" font-size="13" text-anchor="middle" fill="#000000" transform="rotate(270)">SSH Local port forward (-L locahost:8000:localhost:8080)</text>
			<g id="_dDqFAJOQEDSJ0-fnOEkhXA" transform="translate(32 0)">
				<text x="-105" y="20" font-size="12" text-anchor="middle" fill="#000000" transform="rotate(270)">SSH client</text>
				
			</g>
			<g id="_f_vboJOQEDSJ0-fnOEkhXA" transform="translate(32 210)">
				<line x1="0" y1="0" x2="800" y2="0" stroke-width="1.0" stroke="#ADADAD" />
				<text x="-100" y="20" font-size="12" text-anchor="middle" fill="#000000" transform="rotate(270)">SSH server</text>
				
			</g>
			
		</g>
		<g id="_aD1d4JOQEDSJ0-fnOEkhXA" transform="translate(140 81)">
			<ellipse cx="17" cy="17" rx="15" ry="15" fill="url(#StartEvent)" stroke="#216B3F" stroke-width="1.0" />
			
		</g>
		<g id="_8ITBwJOQEDSJ0-fnOEkhXA" transform="translate(256 59)">
			<rect x="0" y="0" width="170" height="80" rx="3" ry="0" fill="url(#TaskWidget)" stroke="#325A6E" stroke-width="1" />
			<text y="22" text-anchor="middle" fill="#000000">
				<tspan x="86" dy="11">send task to connect to host:port</tspan>
				<tspan x="86" dy="11">on remote machine (create</tspan>
				<tspan x="86" dy="11">channel)</tspan>
				
			</text>
			
		</g>
		<g id="_CuboQJOREDSJ0-fnOEkhXA" transform="translate(313 294)">
			<ellipse cx="17" cy="17" rx="15" ry="15" fill="url(#StartEvent)" stroke="#216B3F" stroke-width="1.0" />
			<g>
				<path fill-opacity="0.7" d="M8.75 12.25L26.25 12.25L26.25 22.75L8.75 22.75L8.75 12.25" fill="#fff" stroke-width="1" stroke="#194F2F" />
				<path fill-opacity="0.0" d="M8.75 12.25L17.5 17.5L26.25 12.25" fill="#fff" stroke-width="1" stroke="#194F2F" />
				
			</g>
			
		</g>
		<g id="_HG7SgJOREDSJ0-fnOEkhXA" transform="translate(441 282)">
			<rect x="0" y="0" width="140" height="60" rx="3" ry="0" fill="url(#TaskWidget)" stroke="#325A6E" stroke-width="1" />
			<text y="18" text-anchor="middle" fill="#000000">
				<tspan x="71" dy="11">establish a connection to</tspan>
				<tspan x="71" dy="11">requested host:port</tspan>
				
			</text>
			
		</g>
		<g id="_MOHOwJOREDSJ0-fnOEkhXA" transform="translate(361 178)">
			<path d="M1 1L18.0 1L29 12.0L29 39L1 39L1 1" fill="url(#DataObjectReferenceWidget)" stroke-width="1" stroke="#888888" />
			<path fill-opacity="0.0" d="M18.0 1L18.0 12.0L29 12.0" fill="#fff" stroke-width="1" stroke="#888888" />
			
		</g>
		<g id="_jMM7IJOREDSJ0-fnOEkhXA" transform="translate(493 82)">
			<ellipse cx="17" cy="17" rx="15" ry="15" fill="url(#IntermediateEvent)" stroke="#325A6E" stroke-width="1.0" />
			<ellipse fill-opacity="0.0" cx="17" cy="17" rx="12" ry="12" fill="#fff" stroke="#325A6E" stroke-width="1.0" />
			<g>
				<path fill-opacity="0.7" d="M8.75 12.25L26.25 12.25L26.25 22.75L8.75 22.75L8.75 12.25" fill="#fff" stroke-width="1" stroke="#325A6E" />
				<path fill-opacity="0.0" d="M8.75 12.25L17.5 17.5L26.25 12.25" fill="#fff" stroke-width="1" stroke="#325A6E" />
				
			</g>
			
		</g>
		<g id="_ssT_cJOREDSJ0-fnOEkhXA" transform="translate(620 70)">
			<rect x="0" y="0" width="90" height="60" rx="3" ry="0" fill="url(#TaskWidget)" stroke="#325A6E" stroke-width="1" />
			<text y="23" text-anchor="middle" fill="#000000">
				<tspan x="46" dy="11">transmit data</tspan>
				
			</text>
			
		</g>
		<g id="_xS364JOREDSJ0-fnOEkhXA" transform="translate(620 70)">
			<rect x="0" y="0" width="90" height="60" rx="3" ry="0" fill="url(#TaskWidget)" stroke="#325A6E" stroke-width="1" />
			<text y="23" text-anchor="middle" fill="#000000">
				<tspan x="46" dy="11">transmit data</tspan>
				
			</text>
			
		</g>
		<g id="_x6LLcJOREDSJ0-fnOEkhXA" transform="translate(620 70)">
			<rect x="0" y="0" width="90" height="60" rx="3" ry="0" fill="url(#TaskWidget)" stroke="#325A6E" stroke-width="1" />
			<text y="23" text-anchor="middle" fill="#000000">
				<tspan x="46" dy="11">transmit data</tspan>
				
			</text>
			
		</g>
		<g id="_ynEtsJOREDSJ0-fnOEkhXA" transform="translate(620 282)">
			<rect x="0" y="0" width="90" height="60" rx="3" ry="0" fill="url(#TaskWidget)" stroke="#325A6E" stroke-width="1" />
			<text y="23" text-anchor="middle" fill="#000000">
				<tspan x="46" dy="11">transmit data</tspan>
				
			</text>
			
		</g>
		<g id="_61MlsJOREDSJ0-fnOEkhXA" transform="translate(773 83)">
			<ellipse cx="17" cy="17" rx="16" ry="16" fill="url(#EndEvent)" stroke="#7A2220" stroke-width="2.0" />
			
		</g>
		<g id="_BZG-oJOSEDSJ0-fnOEkhXA" transform="translate(774 295)">
			<ellipse cx="17" cy="17" rx="16" ry="16" fill="url(#EndEvent)" stroke="#7A2220" stroke-width="2.0" />
			
		</g>
		<g id="_BJlKUJOREDSJ0-fnOEkhXA">
			<polyline fill="none" stroke-width="1" stroke="#7E7E7E" points="175,98 215,98" />
			
		</g>
		<g id="_BJlKUJOREDSJ0-fnOEkhXA">
			<polyline fill="none" stroke-width="1" stroke="#7E7E7E" points="215,98 216,98" />
			
		</g>
		<g id="_BJlKUJOREDSJ0-fnOEkhXA">
			<polyline fill="none" stroke-width="1" stroke="#7E7E7E" points="216,98 256,98" />
			<g transform="translate(256,98)">
				<g transform="rotate(90)">
					<polyline fill="#000" stroke-width="1" stroke="#7E7E7E" points="-4,12 0,1 4,12 -4,12" />
					
				</g>
				
			</g>
			
		</g>
		<g id="_FaQVUJOREDSJ0-fnOEkhXA">
			<polyline stroke-dasharray="4, 4" fill="none" stroke-width="1" stroke="#333" points="330,139 330,217" />
			<g transform="translate(330,139)">
				<g transform="rotate(0)">
					<ellipse fill-opacity="1.0" cx="0" cy="0" rx="4" ry="4" fill="#FFF" stroke="#333" stroke-width="1.0" />
					
				</g>
				
			</g>
			
		</g>
		<g id="_FaQVUJOREDSJ0-fnOEkhXA">
			<polyline stroke-dasharray="4, 4" fill="none" stroke-width="1" stroke="#333" points="330,217 330,216" />
			
		</g>
		<g id="_FaQVUJOREDSJ0-fnOEkhXA">
			<polyline stroke-dasharray="4, 4" fill="none" stroke-width="1" stroke="#333" points="330,216 330,294" />
			<g transform="translate(330,294)">
				<g transform="rotate(-180)">
					<polyline fill="#FFF" stroke-width="1" stroke="#7E7E7E" points="-6,10 0,1 6,10 -6,10" />
					
				</g>
				
			</g>
			
		</g>
		<g id="_SYOAkZOREDSJ0-fnOEkhXA">
			<polyline stroke-dasharray="1, 4" fill="none" stroke-width="1" stroke="#7E7E7E" points="368,178 355,139" />
			<g transform="translate(355,139)">
				<g transform="rotate(-18)">
					<polyline fill="none" stroke-width="1" stroke="#000" points="-4,7 0,0 4,7" />
					
				</g>
				
			</g>
			
		</g>
		<g id="_cGbLQ5OREDSJ0-fnOEkhXA">
			<polyline stroke-dasharray="1, 4" fill="none" stroke-width="1" stroke="#7E7E7E" points="391,210 475,282" />
			<g transform="translate(475,282)">
				<g transform="rotate(131)">
					<polyline fill="none" stroke-width="1" stroke="#000" points="-4,7 0,0 4,7" />
					
				</g>
				
			</g>
			
		</g>
		<g id="_fRqYMJOREDSJ0-fnOEkhXA">
			<polyline fill="none" stroke-width="1" stroke="#7E7E7E" points="348,311 394,311" />
			
		</g>
		<g id="_fRqYMJOREDSJ0-fnOEkhXA">
			<polyline fill="none" stroke-width="1" stroke="#7E7E7E" points="394,311 395,311" />
			
		</g>
		<g id="_fRqYMJOREDSJ0-fnOEkhXA">
			<polyline fill="none" stroke-width="1" stroke="#7E7E7E" points="395,311 441,311" />
			<g transform="translate(441,311)">
				<g transform="rotate(90)">
					<polyline fill="#000" stroke-width="1" stroke="#7E7E7E" points="-4,12 0,1 4,12 -4,12" />
					
				</g>
				
			</g>
			
		</g>
		<g id="_kvTsoJOREDSJ0-fnOEkhXA">
			<polyline fill="none" stroke-width="1" stroke="#7E7E7E" points="426,99 459,99" />
			
		</g>
		<g id="_kvTsoJOREDSJ0-fnOEkhXA">
			<polyline fill="none" stroke-width="1" stroke="#7E7E7E" points="459,99 460,99" />
			
		</g>
		<g id="_kvTsoJOREDSJ0-fnOEkhXA">
			<polyline fill="none" stroke-width="1" stroke="#7E7E7E" points="460,99 493,99" />
			<g transform="translate(493,99)">
				<g transform="rotate(90)">
					<polyline fill="#000" stroke-width="1" stroke="#7E7E7E" points="-4,12 0,1 4,12 -4,12" />
					
				</g>
				
			</g>
			
		</g>
		<g id="_nQTCsJOREDSJ0-fnOEkhXA">
			<polyline stroke-dasharray="4, 4" fill="none" stroke-width="1" stroke="#333" points="510,282 510,199" />
			<g transform="translate(510,282)">
				<g transform="rotate(-180)">
					<ellipse fill-opacity="1.0" cx="0" cy="0" rx="4" ry="4" fill="#FFF" stroke="#333" stroke-width="1.0" />
					
				</g>
				
			</g>
			
		</g>
		<g id="_nQTCsJOREDSJ0-fnOEkhXA">
			<polyline stroke-dasharray="4, 4" fill="none" stroke-width="1" stroke="#333" points="510,199 510,200" />
			
		</g>
		<g id="_nQTCsJOREDSJ0-fnOEkhXA">
			<polyline stroke-dasharray="4, 4" fill="none" stroke-width="1" stroke="#333" points="510,200 510,117" />
			<g transform="translate(510,117)">
				<g transform="rotate(0)">
					<polyline fill="#FFF" stroke-width="1" stroke="#7E7E7E" points="-6,10 0,1 6,10 -6,10" />
					
				</g>
				
			</g>
			
		</g>
		<g id="_0BAVEJOREDSJ0-fnOEkhXA">
			<polyline fill="none" stroke-width="1" stroke="#7E7E7E" points="581,312 600,312" />
			
		</g>
		<g id="_0BAVEJOREDSJ0-fnOEkhXA">
			<polyline fill="none" stroke-width="1" stroke="#7E7E7E" points="600,312 601,312" />
			
		</g>
		<g id="_0BAVEJOREDSJ0-fnOEkhXA">
			<polyline fill="none" stroke-width="1" stroke="#7E7E7E" points="601,312 620,312" />
			<g transform="translate(620,312)">
				<g transform="rotate(90)">
					<polyline fill="#000" stroke-width="1" stroke="#7E7E7E" points="-4,12 0,1 4,12 -4,12" />
					
				</g>
				
			</g>
			
		</g>
		<g id="_0bZLAJOREDSJ0-fnOEkhXA">
			<polyline fill="none" stroke-width="1" stroke="#7E7E7E" points="528,99 574,99" />
			
		</g>
		<g id="_0bZLAJOREDSJ0-fnOEkhXA">
			<polyline fill="none" stroke-width="1" stroke="#7E7E7E" points="574,99 574,99" />
			
		</g>
		<g id="_0bZLAJOREDSJ0-fnOEkhXA">
			<polyline fill="none" stroke-width="1" stroke="#7E7E7E" points="574,99 620,99" />
			<g transform="translate(620,99)">
				<g transform="rotate(90)">
					<polyline fill="#000" stroke-width="1" stroke="#7E7E7E" points="-4,12 0,1 4,12 -4,12" />
					
				</g>
				
			</g>
			
		</g>
		<g id="_2dC5sJOREDSJ0-fnOEkhXA">
			<polyline stroke-dasharray="4, 4" fill="none" stroke-width="1" stroke="#333" points="642,130 642,206" />
			<g transform="translate(642,130)">
				<g transform="rotate(0)">
					<ellipse fill-opacity="1.0" cx="0" cy="0" rx="4" ry="4" fill="#FFF" stroke="#333" stroke-width="1.0" />
					
				</g>
				
			</g>
			
		</g>
		<g id="_2dC5sJOREDSJ0-fnOEkhXA">
			<polyline stroke-dasharray="4, 4" fill="none" stroke-width="1" stroke="#333" points="642,206 642,206" />
			
		</g>
		<g id="_2dC5sJOREDSJ0-fnOEkhXA">
			<polyline stroke-dasharray="4, 4" fill="none" stroke-width="1" stroke="#333" points="642,206 642,282" />
			<g transform="translate(642,282)">
				<g transform="rotate(-180)">
					<polyline fill="#FFF" stroke-width="1" stroke="#7E7E7E" points="-6,10 0,1 6,10 -6,10" />
					
				</g>
				
			</g>
			
		</g>
		<g id="_3kV48JOREDSJ0-fnOEkhXA">
			<polyline stroke-dasharray="4, 4" fill="none" stroke-width="1" stroke="#333" points="691,282 691,206" />
			<g transform="translate(691,282)">
				<g transform="rotate(-180)">
					<ellipse fill-opacity="1.0" cx="0" cy="0" rx="4" ry="4" fill="#FFF" stroke="#333" stroke-width="1.0" />
					
				</g>
				
			</g>
			
		</g>
		<g id="_3kV48JOREDSJ0-fnOEkhXA">
			<polyline stroke-dasharray="4, 4" fill="none" stroke-width="1" stroke="#333" points="691,206 691,206" />
			
		</g>
		<g id="_3kV48JOREDSJ0-fnOEkhXA">
			<polyline stroke-dasharray="4, 4" fill="none" stroke-width="1" stroke="#333" points="691,206 691,130" />
			<g transform="translate(691,130)">
				<g transform="rotate(0)">
					<polyline fill="#FFF" stroke-width="1" stroke="#7E7E7E" points="-6,10 0,1 6,10 -6,10" />
					
				</g>
				
			</g>
			
		</g>
		<g id="_A2W24JOSEDSJ0-fnOEkhXA">
			<polyline fill="none" stroke-width="1" stroke="#7E7E7E" points="710,100 741,100" />
			
		</g>
		<g id="_A2W24JOSEDSJ0-fnOEkhXA">
			<polyline fill="none" stroke-width="1" stroke="#7E7E7E" points="741,100 742,100" />
			
		</g>
		<g id="_A2W24JOSEDSJ0-fnOEkhXA">
			<polyline fill="none" stroke-width="1" stroke="#7E7E7E" points="742,100 773,100" />
			<g transform="translate(773,100)">
				<g transform="rotate(90)">
					<polyline fill="#000" stroke-width="1" stroke="#7E7E7E" points="-4,12 0,1 4,12 -4,12" />
					
				</g>
				
			</g>
			
		</g>
		<g id="_FuRoEJOSEDSJ0-fnOEkhXA">
			<polyline fill="none" stroke-width="1" stroke="#7E7E7E" points="710,312 742,312" />
			
		</g>
		<g id="_FuRoEJOSEDSJ0-fnOEkhXA">
			<polyline fill="none" stroke-width="1" stroke="#7E7E7E" points="742,312 742,312" />
			
		</g>
		<g id="_FuRoEJOSEDSJ0-fnOEkhXA">
			<polyline fill="none" stroke-width="1" stroke="#7E7E7E" points="742,312 774,312" />
			<g transform="translate(774,312)">
				<g transform="rotate(90)">
					<polyline fill="#000" stroke-width="1" stroke="#7E7E7E" points="-4,12 0,1 4,12 -4,12" />
					
				</g>
				
			</g>
			
		</g>
		<text y="119" font-size="11" text-anchor="middle" fill="#000000">
			<tspan x="158" dy="11">browser</tspan>
			<tspan x="158" dy="11">connects to</tspan>
			<tspan x="158" dy="11">port 8000 on</tspan>
			<tspan x="158" dy="11">localhost</tspan>
			
		</text>
		<text y="332" font-size="11" text-anchor="middle" fill="#000000">
			<tspan x="331" dy="11">wait for</tspan>
			<tspan x="331" dy="11">connection</tspan>
			<tspan x="331" dy="11">requests</tspan>
			
		</text>
		<text y="180" font-size="11" text-anchor="middle" fill="#000000">
			<tspan x="441" dy="11">port forward</tspan>
			<tspan x="441" dy="11">parameters:</tspan>
			<tspan x="441" dy="11">localhost:8080</tspan>
			
		</text>
		<text y="53" font-size="11" text-anchor="middle" fill="#000000">
			<tspan x="511" dy="11">wait for</tspan>
			<tspan x="511" dy="11">connection</tspan>
			
		</text>
		<text y="121" font-size="11" text-anchor="middle" fill="#000000">
			<tspan x="791" dy="11">close</tspan>
			<tspan x="791" dy="11">channel</tspan>
			
		</text>
		<text y="333" font-size="11" text-anchor="middle" fill="#000000">
			<tspan x="792" dy="11">close</tspan>
			<tspan x="792" dy="11">connection to</tspan>
			<tspan x="792" dy="11">requested</tspan>
			<tspan x="792" dy="11">host:port</tspan>
			
		</text>
		<text y="100" font-size="11" text-anchor="middle" fill="#000000">
			<tspan x="241" dy="11"> </tspan>
			
		</text>
		<text y="219" font-size="11" text-anchor="middle" fill="#000000">
			<tspan x="355" dy="11"> </tspan>
			
		</text>
		<text y="313" font-size="11" text-anchor="middle" fill="#000000">
			<tspan x="420" dy="11"> </tspan>
			
		</text>
		<text y="101" font-size="11" text-anchor="middle" fill="#000000">
			<tspan x="485" dy="11"> </tspan>
			
		</text>
		<text y="202" font-size="11" text-anchor="middle" fill="#000000">
			<tspan x="535" dy="11"> </tspan>
			
		</text>
		<text y="314" font-size="11" text-anchor="middle" fill="#000000">
			<tspan x="626" dy="11"> </tspan>
			
		</text>
		<text y="101" font-size="11" text-anchor="middle" fill="#000000">
			<tspan x="599" dy="11"> </tspan>
			
		</text>
		<text y="195" font-size="11" text-anchor="middle" fill="#000000">
			<tspan x="617" dy="11">HTTP</tspan>
			<tspan x="617" dy="11">GET</tspan>
			
		</text>
		<text y="195" font-size="11" text-anchor="middle" fill="#000000">
			<tspan x="726" dy="11">HTTP/200</tspan>
			<tspan x="726" dy="11">Response</tspan>
			
		</text>
		<text y="102" font-size="11" text-anchor="middle" fill="#000000">
			<tspan x="767" dy="11"> </tspan>
			
		</text>
		<text y="314" font-size="11" text-anchor="middle" fill="#000000">
			<tspan x="767" dy="11"> </tspan>
			
		</text>
		
	</g>
	
</svg>
