<?xml version="1.0" encoding="utf-8"?>
<!DOCTYPE svg PUBLIC "-//W3C//DTD SVG 1.1//EN"  "http://www.w3.org/Graphics/SVG/1.1/DTD/svg11.dtd">
<svg version="1.1" xmlns="http://www.w3.org/2000/svg" xmlns:xlink="http://www.w3.org/1999/xlink" font-family="Arial" font-size="11" width="973" height="714">
	<desc>BPMN2 diagram model</desc>
	<g id="_Z4mVA7FiEealN5YbbDMqoA">
		<defs>
			<linearGradient id="greyGradient" x1="0%" y1="0%" x2="0%" y2="100%" spreadMethod="pad">
				<stop offset="0%" stop-color="#FFF" stop-opacity="1" />
				<stop offset="100%" stop-color="#E5E5E5" stop-opacity="1" />
				
			</linearGradient>
			<linearGradient id="packageGradient" x1="0%" y1="0%" x2="0%" y2="100%" spreadMethod="pad">
				<stop offset="0%" stop-color="#FFF" stop-opacity="1" />
				<stop offset="100%" stop-color="#EFE9DE" stop-opacity="1" />
				
			</linearGradient>
			<linearGradient id="IntermediateEvent" x1="0%" y1="0%" x2="0%" y2="100%" spreadMethod="pad">
				<stop offset="0%" stop-color="#F5F7F9" stop-opacity="1" />
				<stop offset="100%" stop-color="#D9EDF7" stop-opacity="1" />
				
			</linearGradient>
			<linearGradient id="DataObjectReferenceWidget" x1="0%" y1="0%" x2="0%" y2="100%" spreadMethod="pad">
				<stop offset="0%" stop-color="#FFF" stop-opacity="1" />
				<stop offset="100%" stop-color="#F5FFFE" stop-opacity="1" />
				
			</linearGradient>
			<linearGradient id="StartEvent" x1="0%" y1="0%" x2="0%" y2="100%" spreadMethod="pad">
				<stop offset="0%" stop-color="#60E496" stop-opacity="1" />
				<stop offset="100%" stop-color="#31A761" stop-opacity="1" />
				
			</linearGradient>
			<linearGradient id="TaskWidget" x1="0%" y1="0%" x2="0%" y2="100%" spreadMethod="pad">
				<stop offset="0%" stop-color="#F5F7F9" stop-opacity="1" />
				<stop offset="100%" stop-color="#D9EDF7" stop-opacity="1" />
				
			</linearGradient>
			<linearGradient id="EndEvent" x1="0%" y1="0%" x2="0%" y2="100%" spreadMethod="pad">
				<stop offset="0%" stop-color="#E59492" stop-opacity="1" />
				<stop offset="100%" stop-color="#F27572" stop-opacity="1" />
				
			</linearGradient>
			
		</defs>
		<g id="_clW_cJOQEDSJ0-fnOEkhXA" transform="translate(50 258)">
			<rect fill-opacity="0.5" x="0" y="0" width="883" height="416" rx="0" ry="0" fill="#fff" stroke="#ADADAD" stroke-width="1" />
			<line x1="31" y1="0" x2="31" y2="416" stroke-width="1.0" stroke="#ADADAD" />
			<text x="-208" y="20" font-size="13" text-anchor="middle" fill="#000000" transform="rotate(270)">SSH Remote port forward (-R 0.0.0.0:8022:localhost:22)</text>
			<g id="_dDqFAJOQEDSJ0-fnOEkhXA" transform="translate(32 0)">
				<text x="-110" y="20" font-size="12" text-anchor="middle" fill="#000000" transform="rotate(270)">SSH server @ sshto.net</text>
				
			</g>
			<g id="_f_vboJOQEDSJ0-fnOEkhXA" transform="translate(32 220)">
				<line x1="0" y1="0" x2="850" y2="0" stroke-width="1.0" stroke="#ADADAD" />
				<text x="-97" y="20" font-size="12" text-anchor="middle" fill="#000000" transform="rotate(270)">SSH client @ RPI</text>
				
			</g>
			
		</g>
		<g id="_9oQfAJOYEDS4G-hGacah5Q" transform="translate(50 20)">
			<rect fill-opacity="0.5" x="0" y="0" width="883" height="212" rx="0" ry="0" fill="#fff" stroke="#ADADAD" stroke-width="1" />
			<line x1="31" y1="0" x2="31" y2="212" stroke-width="1.0" stroke="#ADADAD" />
			<text x="-106" y="20" font-size="13" text-anchor="middle" fill="#000000" transform="rotate(270)">User</text>
			
		</g>
		<g id="_8ITBwJOQEDSJ0-fnOEkhXA" transform="translate(348 305)">
			<rect x="0" y="0" width="170" height="80" rx="3" ry="0" fill="url(#TaskWidget)" stroke="#325A6E" stroke-width="1" />
			<text y="22" text-anchor="middle" fill="#000000">
				<tspan x="86" dy="11">send task to connect to host:port</tspan>
				<tspan x="86" dy="11">on remote machine (create</tspan>
				<tspan x="86" dy="11">channel)</tspan>
				
			</text>
			
		</g>
		<g id="_HG7SgJOREDSJ0-fnOEkhXA" transform="translate(534 523)">
			<rect x="0" y="0" width="140" height="60" rx="3" ry="0" fill="url(#TaskWidget)" stroke="#325A6E" stroke-width="1" />
			<text y="18" text-anchor="middle" fill="#000000">
				<tspan x="71" dy="11">establish a connection to</tspan>
				<tspan x="71" dy="11">requested host:port</tspan>
				
			</text>
			
		</g>
		<g id="_MOHOwJOREDSJ0-fnOEkhXA" transform="translate(452 424)">
			<path d="M1 1L18.0 1L29 12.0L29 39L1 39L1 1" fill="url(#DataObjectReferenceWidget)" stroke-width="1" stroke="#888888" />
			<path fill-opacity="0.0" d="M18.0 1L18.0 12.0L29 12.0" fill="#fff" stroke-width="1" stroke="#888888" />
			
		</g>
		<g id="_jMM7IJOREDSJ0-fnOEkhXA" transform="translate(587 328)">
			<ellipse cx="17" cy="17" rx="15" ry="15" fill="url(#IntermediateEvent)" stroke="#325A6E" stroke-width="1.0" />
			<ellipse fill-opacity="0.0" cx="17" cy="17" rx="12" ry="12" fill="#fff" stroke="#325A6E" stroke-width="1.0" />
			<g>
				<path fill-opacity="0.7" d="M8.75 12.25L26.25 12.25L26.25 22.75L8.75 22.75L8.75 12.25" fill="#fff" stroke-width="1" stroke="#325A6E" />
				<path fill-opacity="0.0" d="M8.75 12.25L17.5 17.5L26.25 12.25" fill="#fff" stroke-width="1" stroke="#325A6E" />
				
			</g>
			
		</g>
		<g id="_ssT_cJOREDSJ0-fnOEkhXA" transform="translate(713 316)">
			<rect x="0" y="0" width="90" height="60" rx="3" ry="0" fill="url(#TaskWidget)" stroke="#325A6E" stroke-width="1" />
			<text y="23" text-anchor="middle" fill="#000000">
				<tspan x="46" dy="11">transmit data</tspan>
				
			</text>
			
		</g>
		<g id="_xS364JOREDSJ0-fnOEkhXA" transform="translate(713 316)">
			<rect x="0" y="0" width="90" height="60" rx="3" ry="0" fill="url(#TaskWidget)" stroke="#325A6E" stroke-width="1" />
			<text y="23" text-anchor="middle" fill="#000000">
				<tspan x="46" dy="11">transmit data</tspan>
				
			</text>
			
		</g>
		<g id="_x6LLcJOREDSJ0-fnOEkhXA" transform="translate(713 316)">
			<rect x="0" y="0" width="90" height="60" rx="3" ry="0" fill="url(#TaskWidget)" stroke="#325A6E" stroke-width="1" />
			<text y="23" text-anchor="middle" fill="#000000">
				<tspan x="46" dy="11">transmit data</tspan>
				
			</text>
			
		</g>
		<g id="_ynEtsJOREDSJ0-fnOEkhXA" transform="translate(713 523)">
			<rect x="0" y="0" width="90" height="60" rx="3" ry="0" fill="url(#TaskWidget)" stroke="#325A6E" stroke-width="1" />
			<text y="23" text-anchor="middle" fill="#000000">
				<tspan x="46" dy="11">transmit data</tspan>
				
			</text>
			
		</g>
		<g id="_61MlsJOREDSJ0-fnOEkhXA" transform="translate(868 329)">
			<ellipse cx="17" cy="17" rx="16" ry="16" fill="url(#EndEvent)" stroke="#7A2220" stroke-width="2.0" />
			
		</g>
		<g id="_BZG-oJOSEDSJ0-fnOEkhXA" transform="translate(867 536)">
			<ellipse cx="17" cy="17" rx="16" ry="16" fill="url(#EndEvent)" stroke="#7A2220" stroke-width="2.0" />
			
		</g>
		<g id="_VbcSQJOXEDS4G-hGacah5Q" transform="translate(139 536)">
			<ellipse cx="17" cy="17" rx="15" ry="15" fill="url(#StartEvent)" stroke="#216B3F" stroke-width="1.0" />
			
		</g>
		<g id="_ZO7yAJOXEDS4G-hGacah5Q" transform="translate(402 536)">
			<ellipse cx="17" cy="17" rx="15" ry="15" fill="url(#IntermediateEvent)" stroke="#325A6E" stroke-width="1.0" />
			<ellipse fill-opacity="0.0" cx="17" cy="17" rx="12" ry="12" fill="#fff" stroke="#325A6E" stroke-width="1.0" />
			<g>
				<path fill-opacity="0.7" d="M8.75 12.25L26.25 12.25L26.25 22.75L8.75 22.75L8.75 12.25" fill="#fff" stroke-width="1" stroke="#325A6E" />
				<path fill-opacity="0.0" d="M8.75 12.25L17.5 17.5L26.25 12.25" fill="#fff" stroke-width="1" stroke="#325A6E" />
				
			</g>
			
		</g>
		<g id="_CJ2a4JOZEDS4G-hGacah5Q" transform="translate(199 81)">
			<ellipse cx="17" cy="17" rx="15" ry="15" fill="url(#StartEvent)" stroke="#216B3F" stroke-width="1.0" />
			
		</g>
		<g id="_HqA30JOZEDS4G-hGacah5Q" transform="translate(348 68)">
			<rect x="0" y="0" width="90" height="60" rx="3" ry="0" fill="url(#TaskWidget)" stroke="#325A6E" stroke-width="1" />
			<text y="12" text-anchor="middle" fill="#000000">
				<tspan x="46" dy="11">PuTTY</tspan>
				<tspan x="46" dy="11">establishes</tspan>
				<tspan x="46" dy="11">connection</tspan>
				
			</text>
			
		</g>
		<g id="_OjtTgJOZEDS4G-hGacah5Q" transform="translate(249 523)">
			<rect x="0" y="0" width="90" height="60" rx="3" ry="0" fill="url(#TaskWidget)" stroke="#325A6E" stroke-width="1" />
			<text y="12" text-anchor="middle" fill="#000000">
				<tspan x="46" dy="11">establish</tspan>
				<tspan x="46" dy="11">connection to </tspan>
				<tspan x="46" dy="11">SSH server</tspan>
				
			</text>
			
		</g>
		<g id="_UHo2IJOZEDS4G-hGacah5Q" transform="translate(140 329)">
			<ellipse cx="17" cy="17" rx="15" ry="15" fill="url(#StartEvent)" stroke="#216B3F" stroke-width="1.0" />
			<g>
				<path fill-opacity="0.7" d="M8.75 12.25L26.25 12.25L26.25 22.75L8.75 22.75L8.75 12.25" fill="#fff" stroke-width="1" stroke="#194F2F" />
				<path fill-opacity="0.0" d="M8.75 12.25L17.5 17.5L26.25 12.25" fill="#fff" stroke-width="1" stroke="#194F2F" />
				
			</g>
			
		</g>
		<g id="_YXNN4JOZEDS4G-hGacah5Q" transform="translate(249 328)">
			<ellipse cx="17" cy="17" rx="15" ry="15" fill="url(#IntermediateEvent)" stroke="#325A6E" stroke-width="1.0" />
			<ellipse fill-opacity="0.0" cx="17" cy="17" rx="12" ry="12" fill="#fff" stroke="#325A6E" stroke-width="1.0" />
			<g>
				<path fill-opacity="0.7" d="M8.75 12.25L26.25 12.25L26.25 22.75L8.75 22.75L8.75 12.25" fill="#fff" stroke-width="1" stroke="#325A6E" />
				<path fill-opacity="0.0" d="M8.75 12.25L17.5 17.5L26.25 12.25" fill="#fff" stroke-width="1" stroke="#325A6E" />
				
			</g>
			
		</g>
		<g id="_qi0pwJOZEDS4G-hGacah5Q" transform="translate(713 68)">
			<rect x="0" y="0" width="90" height="60" rx="3" ry="0" fill="url(#TaskWidget)" stroke="#325A6E" stroke-width="1" />
			<text y="23" text-anchor="middle" fill="#000000">
				<tspan x="46" dy="11">transmit data</tspan>
				
			</text>
			
		</g>
		<g id="_ynPzMJOZEDS4G-hGacah5Q" transform="translate(845 80)">
			<ellipse cx="17" cy="17" rx="16" ry="16" fill="url(#EndEvent)" stroke="#7A2220" stroke-width="2.0" />
			
		</g>
		<g id="_SYOAkZOREDSJ0-fnOEkhXA">
			<polyline stroke-dasharray="1, 4" fill="none" stroke-width="1" stroke="#7E7E7E" points="460,424 446,385" />
			<g transform="translate(446,385)">
				<g transform="rotate(-20)">
					<polyline fill="none" stroke-width="1" stroke="#000" points="-4,7 0,0 4,7" />
					
				</g>
				
			</g>
			
		</g>
		<g id="_cGbLQ5OREDSJ0-fnOEkhXA">
			<polyline stroke-dasharray="1, 4" fill="none" stroke-width="1" stroke="#7E7E7E" points="482,455 566,523" />
			<g transform="translate(566,523)">
				<g transform="rotate(129)">
					<polyline fill="none" stroke-width="1" stroke="#000" points="-4,7 0,0 4,7" />
					
				</g>
				
			</g>
			
		</g>
		<g id="_kvTsoJOREDSJ0-fnOEkhXA">
			<polyline fill="none" stroke-width="1" stroke="#7E7E7E" points="518,345 552,345" />
			
		</g>
		<g id="_kvTsoJOREDSJ0-fnOEkhXA">
			<polyline fill="none" stroke-width="1" stroke="#7E7E7E" points="552,345 553,345" />
			
		</g>
		<g id="_kvTsoJOREDSJ0-fnOEkhXA">
			<polyline fill="none" stroke-width="1" stroke="#7E7E7E" points="553,345 587,345" />
			<g transform="translate(587,345)">
				<g transform="rotate(90)">
					<polyline fill="#000" stroke-width="1" stroke="#7E7E7E" points="-4,12 0,1 4,12 -4,12" />
					
				</g>
				
			</g>
			
		</g>
		<g id="_nQTCsJOREDSJ0-fnOEkhXA">
			<polyline stroke-dasharray="4, 4" fill="none" stroke-width="1" stroke="#333" points="604,523 604,443" />
			<g transform="translate(604,523)">
				<g transform="rotate(-180)">
					<ellipse fill-opacity="1.0" cx="0" cy="0" rx="4" ry="4" fill="#FFF" stroke="#333" stroke-width="1.0" />
					
				</g>
				
			</g>
			
		</g>
		<g id="_nQTCsJOREDSJ0-fnOEkhXA">
			<polyline stroke-dasharray="4, 4" fill="none" stroke-width="1" stroke="#333" points="604,443 604,443" />
			
		</g>
		<g id="_nQTCsJOREDSJ0-fnOEkhXA">
			<polyline stroke-dasharray="4, 4" fill="none" stroke-width="1" stroke="#333" points="604,443 604,363" />
			<g transform="translate(604,363)">
				<g transform="rotate(0)">
					<polyline fill="#FFF" stroke-width="1" stroke="#7E7E7E" points="-6,10 0,1 6,10 -6,10" />
					
				</g>
				
			</g>
			
		</g>
		<g id="_0BAVEJOREDSJ0-fnOEkhXA">
			<polyline fill="none" stroke-width="1" stroke="#7E7E7E" points="674,553 693,553" />
			
		</g>
		<g id="_0BAVEJOREDSJ0-fnOEkhXA">
			<polyline fill="none" stroke-width="1" stroke="#7E7E7E" points="693,553 694,553" />
			
		</g>
		<g id="_0BAVEJOREDSJ0-fnOEkhXA">
			<polyline fill="none" stroke-width="1" stroke="#7E7E7E" points="694,553 713,553" />
			<g transform="translate(713,553)">
				<g transform="rotate(90)">
					<polyline fill="#000" stroke-width="1" stroke="#7E7E7E" points="-4,12 0,1 4,12 -4,12" />
					
				</g>
				
			</g>
			
		</g>
		<g id="_0bZLAJOREDSJ0-fnOEkhXA">
			<polyline fill="none" stroke-width="1" stroke="#7E7E7E" points="622,345 667,345" />
			
		</g>
		<g id="_0bZLAJOREDSJ0-fnOEkhXA">
			<polyline fill="none" stroke-width="1" stroke="#7E7E7E" points="667,345 668,345" />
			
		</g>
		<g id="_0bZLAJOREDSJ0-fnOEkhXA">
			<polyline fill="none" stroke-width="1" stroke="#7E7E7E" points="668,345 713,345" />
			<g transform="translate(713,345)">
				<g transform="rotate(90)">
					<polyline fill="#000" stroke-width="1" stroke="#7E7E7E" points="-4,12 0,1 4,12 -4,12" />
					
				</g>
				
			</g>
			
		</g>
		<g id="_2dC5sJOREDSJ0-fnOEkhXA">
			<polyline stroke-dasharray="4, 4" fill="none" stroke-width="1" stroke="#333" points="748,376 748,450" />
			<g transform="translate(748,376)">
				<g transform="rotate(0)">
					<ellipse fill-opacity="1.0" cx="0" cy="0" rx="4" ry="4" fill="#FFF" stroke="#333" stroke-width="1.0" />
					
				</g>
				
			</g>
			
		</g>
		<g id="_2dC5sJOREDSJ0-fnOEkhXA">
			<polyline stroke-dasharray="4, 4" fill="none" stroke-width="1" stroke="#333" points="748,450 748,449" />
			
		</g>
		<g id="_2dC5sJOREDSJ0-fnOEkhXA">
			<polyline stroke-dasharray="4, 4" fill="none" stroke-width="1" stroke="#333" points="748,449 748,523" />
			<g transform="translate(748,523)">
				<g transform="rotate(-180)">
					<polyline fill="#FFF" stroke-width="1" stroke="#7E7E7E" points="-6,10 0,1 6,10 -6,10" />
					
				</g>
				
			</g>
			
		</g>
		<g id="_3kV48JOREDSJ0-fnOEkhXA">
			<polyline stroke-dasharray="4, 4" fill="none" stroke-width="1" stroke="#333" points="769,523 769,449" />
			<g transform="translate(769,523)">
				<g transform="rotate(-180)">
					<ellipse fill-opacity="1.0" cx="0" cy="0" rx="4" ry="4" fill="#FFF" stroke="#333" stroke-width="1.0" />
					
				</g>
				
			</g>
			
		</g>
		<g id="_3kV48JOREDSJ0-fnOEkhXA">
			<polyline stroke-dasharray="4, 4" fill="none" stroke-width="1" stroke="#333" points="769,449 769,450" />
			
		</g>
		<g id="_3kV48JOREDSJ0-fnOEkhXA">
			<polyline stroke-dasharray="4, 4" fill="none" stroke-width="1" stroke="#333" points="769,450 769,376" />
			<g transform="translate(769,376)">
				<g transform="rotate(0)">
					<polyline fill="#FFF" stroke-width="1" stroke="#7E7E7E" points="-6,10 0,1 6,10 -6,10" />
					
				</g>
				
			</g>
			
		</g>
		<g id="_A2W24JOSEDSJ0-fnOEkhXA">
			<polyline fill="none" stroke-width="1" stroke="#7E7E7E" points="803,346 835,346" />
			
		</g>
		<g id="_A2W24JOSEDSJ0-fnOEkhXA">
			<polyline fill="none" stroke-width="1" stroke="#7E7E7E" points="835,346 836,346" />
			
		</g>
		<g id="_A2W24JOSEDSJ0-fnOEkhXA">
			<polyline fill="none" stroke-width="1" stroke="#7E7E7E" points="836,346 868,346" />
			<g transform="translate(868,346)">
				<g transform="rotate(90)">
					<polyline fill="#000" stroke-width="1" stroke="#7E7E7E" points="-4,12 0,1 4,12 -4,12" />
					
				</g>
				
			</g>
			
		</g>
		<g id="_FuRoEJOSEDSJ0-fnOEkhXA">
			<polyline fill="none" stroke-width="1" stroke="#7E7E7E" points="803,553 835,553" />
			
		</g>
		<g id="_FuRoEJOSEDSJ0-fnOEkhXA">
			<polyline fill="none" stroke-width="1" stroke="#7E7E7E" points="835,553 835,553" />
			
		</g>
		<g id="_FuRoEJOSEDSJ0-fnOEkhXA">
			<polyline fill="none" stroke-width="1" stroke="#7E7E7E" points="835,553 867,553" />
			<g transform="translate(867,553)">
				<g transform="rotate(90)">
					<polyline fill="#000" stroke-width="1" stroke="#7E7E7E" points="-4,12 0,1 4,12 -4,12" />
					
				</g>
				
			</g>
			
		</g>
		<g id="_eW044JOXEDS4G-hGacah5Q">
			<polyline stroke-dasharray="4, 4" fill="none" stroke-width="1" stroke="#333" points="419,385 419,461" />
			<g transform="translate(419,385)">
				<g transform="rotate(0)">
					<ellipse fill-opacity="1.0" cx="0" cy="0" rx="4" ry="4" fill="#FFF" stroke="#333" stroke-width="1.0" />
					
				</g>
				
			</g>
			
		</g>
		<g id="_eW044JOXEDS4G-hGacah5Q">
			<polyline stroke-dasharray="4, 4" fill="none" stroke-width="1" stroke="#333" points="419,461 419,460" />
			
		</g>
		<g id="_eW044JOXEDS4G-hGacah5Q">
			<polyline stroke-dasharray="4, 4" fill="none" stroke-width="1" stroke="#333" points="419,460 419,536" />
			<g transform="translate(419,536)">
				<g transform="rotate(-180)">
					<polyline fill="#FFF" stroke-width="1" stroke="#7E7E7E" points="-6,10 0,1 6,10 -6,10" />
					
				</g>
				
			</g>
			
		</g>
		<g id="_fu--oJOXEDS4G-hGacah5Q">
			<polyline fill="none" stroke-width="1" stroke="#7E7E7E" points="437,553 485,553" />
			
		</g>
		<g id="_fu--oJOXEDS4G-hGacah5Q">
			<polyline fill="none" stroke-width="1" stroke="#7E7E7E" points="485,553 486,553" />
			
		</g>
		<g id="_fu--oJOXEDS4G-hGacah5Q">
			<polyline fill="none" stroke-width="1" stroke="#7E7E7E" points="486,553 534,553" />
			<g transform="translate(534,553)">
				<g transform="rotate(90)">
					<polyline fill="#000" stroke-width="1" stroke="#7E7E7E" points="-4,12 0,1 4,12 -4,12" />
					
				</g>
				
			</g>
			
		</g>
		<g id="_JxycoJOZEDS4G-hGacah5Q">
			<polyline fill="none" stroke-width="1" stroke="#7E7E7E" points="234,98 291,98" />
			
		</g>
		<g id="_JxycoJOZEDS4G-hGacah5Q">
			<polyline fill="none" stroke-width="1" stroke="#7E7E7E" points="291,98 291,98" />
			
		</g>
		<g id="_JxycoJOZEDS4G-hGacah5Q">
			<polyline fill="none" stroke-width="1" stroke="#7E7E7E" points="291,98 348,98" />
			<g transform="translate(348,98)">
				<g transform="rotate(90)">
					<polyline fill="#000" stroke-width="1" stroke="#7E7E7E" points="-4,12 0,1 4,12 -4,12" />
					
				</g>
				
			</g>
			
		</g>
		<g id="_RP50AJOZEDS4G-hGacah5Q">
			<polyline fill="none" stroke-width="1" stroke="#7E7E7E" points="174,553 211,553" />
			
		</g>
		<g id="_RP50AJOZEDS4G-hGacah5Q">
			<polyline fill="none" stroke-width="1" stroke="#7E7E7E" points="211,553 212,553" />
			
		</g>
		<g id="_RP50AJOZEDS4G-hGacah5Q">
			<polyline fill="none" stroke-width="1" stroke="#7E7E7E" points="212,553 249,553" />
			<g transform="translate(249,553)">
				<g transform="rotate(90)">
					<polyline fill="#000" stroke-width="1" stroke="#7E7E7E" points="-4,12 0,1 4,12 -4,12" />
					
				</g>
				
			</g>
			
		</g>
		<g id="_Rp_vAJOZEDS4G-hGacah5Q">
			<polyline fill="none" stroke-width="1" stroke="#7E7E7E" points="339,553 370,553" />
			
		</g>
		<g id="_Rp_vAJOZEDS4G-hGacah5Q">
			<polyline fill="none" stroke-width="1" stroke="#7E7E7E" points="370,553 371,553" />
			
		</g>
		<g id="_Rp_vAJOZEDS4G-hGacah5Q">
			<polyline fill="none" stroke-width="1" stroke="#7E7E7E" points="371,553 402,553" />
			<g transform="translate(402,553)">
				<g transform="rotate(90)">
					<polyline fill="#000" stroke-width="1" stroke="#7E7E7E" points="-4,12 0,1 4,12 -4,12" />
					
				</g>
				
			</g>
			
		</g>
		<g id="_ZR4tcJOZEDS4G-hGacah5Q">
			<polyline fill="none" stroke-width="1" stroke="#7E7E7E" points="175,346 212,346" />
			
		</g>
		<g id="_ZR4tcJOZEDS4G-hGacah5Q">
			<polyline fill="none" stroke-width="1" stroke="#7E7E7E" points="212,346 212,346" />
			
		</g>
		<g id="_ZR4tcJOZEDS4G-hGacah5Q">
			<polyline fill="none" stroke-width="1" stroke="#7E7E7E" points="212,346 249,346" />
			<g transform="translate(249,346)">
				<g transform="rotate(90)">
					<polyline fill="#000" stroke-width="1" stroke="#7E7E7E" points="-4,12 0,1 4,12 -4,12" />
					
				</g>
				
			</g>
			
		</g>
		<g id="_ZlLc4JOZEDS4G-hGacah5Q">
			<polyline fill="none" stroke-width="1" stroke="#7E7E7E" points="284,345 316,345" />
			
		</g>
		<g id="_ZlLc4JOZEDS4G-hGacah5Q">
			<polyline fill="none" stroke-width="1" stroke="#7E7E7E" points="316,345 316,345" />
			
		</g>
		<g id="_ZlLc4JOZEDS4G-hGacah5Q">
			<polyline fill="none" stroke-width="1" stroke="#7E7E7E" points="316,345 348,345" />
			<g transform="translate(348,345)">
				<g transform="rotate(90)">
					<polyline fill="#000" stroke-width="1" stroke="#7E7E7E" points="-4,12 0,1 4,12 -4,12" />
					
				</g>
				
			</g>
			
		</g>
		<g id="_dCtTsJOZEDS4G-hGacah5Q">
			<polyline stroke-dasharray="4, 4" fill="none" stroke-width="1" stroke="#333" points="393,128 393,186" />
			<g transform="translate(393,128)">
				<g transform="rotate(0)">
					<ellipse fill-opacity="1.0" cx="0" cy="0" rx="4" ry="4" fill="#FFF" stroke="#333" stroke-width="1.0" />
					
				</g>
				
			</g>
			
		</g>
		<g id="_dCtTsJOZEDS4G-hGacah5Q">
			<polyline stroke-dasharray="4, 4" fill="none" stroke-width="1" stroke="#333" points="393,186 265,186" />
			
		</g>
		<g id="_dCtTsJOZEDS4G-hGacah5Q">
			<polyline stroke-dasharray="4, 4" fill="none" stroke-width="1" stroke="#333" points="265,186 265,328" />
			<g transform="translate(265,328)">
				<g transform="rotate(-180)">
					<polyline fill="#FFF" stroke-width="1" stroke="#7E7E7E" points="-6,10 0,1 6,10 -6,10" />
					
				</g>
				
			</g>
			
		</g>
		<g id="_hSoQwJOZEDS4G-hGacah5Q">
			<polyline stroke-dasharray="4, 4" fill="none" stroke-width="1" stroke="#333" points="294,523 294,443" />
			<g transform="translate(294,523)">
				<g transform="rotate(-180)">
					<ellipse fill-opacity="1.0" cx="0" cy="0" rx="4" ry="4" fill="#FFF" stroke="#333" stroke-width="1.0" />
					
				</g>
				
			</g>
			
		</g>
		<g id="_hSoQwJOZEDS4G-hGacah5Q">
			<polyline stroke-dasharray="4, 4" fill="none" stroke-width="1" stroke="#333" points="294,443 158,444" />
			
		</g>
		<g id="_hSoQwJOZEDS4G-hGacah5Q">
			<polyline stroke-dasharray="4, 4" fill="none" stroke-width="1" stroke="#333" points="158,444 158,364" />
			<g transform="translate(158,364)">
				<g transform="rotate(0)">
					<polyline fill="#FFF" stroke-width="1" stroke="#7E7E7E" points="-6,10 0,1 6,10 -6,10" />
					
				</g>
				
			</g>
			
		</g>
		<g id="_sLLHoJOZEDS4G-hGacah5Q">
			<polyline fill="none" stroke-width="1" stroke="#7E7E7E" points="438,98 575,98" />
			
		</g>
		<g id="_sLLHoJOZEDS4G-hGacah5Q">
			<polyline fill="none" stroke-width="1" stroke="#7E7E7E" points="575,98 576,98" />
			
		</g>
		<g id="_sLLHoJOZEDS4G-hGacah5Q">
			<polyline fill="none" stroke-width="1" stroke="#7E7E7E" points="576,98 713,98" />
			<g transform="translate(713,98)">
				<g transform="rotate(90)">
					<polyline fill="#000" stroke-width="1" stroke="#7E7E7E" points="-4,12 0,1 4,12 -4,12" />
					
				</g>
				
			</g>
			
		</g>
		<g id="_s4uKIJOZEDS4G-hGacah5Q">
			<polyline stroke-dasharray="4, 4" fill="none" stroke-width="1" stroke="#333" points="768,128 768,222" />
			<g transform="translate(768,128)">
				<g transform="rotate(0)">
					<ellipse fill-opacity="1.0" cx="0" cy="0" rx="4" ry="4" fill="#FFF" stroke="#333" stroke-width="1.0" />
					
				</g>
				
			</g>
			
		</g>
		<g id="_s4uKIJOZEDS4G-hGacah5Q">
			<polyline stroke-dasharray="4, 4" fill="none" stroke-width="1" stroke="#333" points="768,222 768,222" />
			
		</g>
		<g id="_s4uKIJOZEDS4G-hGacah5Q">
			<polyline stroke-dasharray="4, 4" fill="none" stroke-width="1" stroke="#333" points="768,222 768,316" />
			<g transform="translate(768,316)">
				<g transform="rotate(-180)">
					<polyline fill="#FFF" stroke-width="1" stroke="#7E7E7E" points="-6,10 0,1 6,10 -6,10" />
					
				</g>
				
			</g>
			
		</g>
		<g id="_taidwJOZEDS4G-hGacah5Q">
			<polyline stroke-dasharray="4, 4" fill="none" stroke-width="1" stroke="#333" points="743,316 743,222" />
			<g transform="translate(743,316)">
				<g transform="rotate(-180)">
					<ellipse fill-opacity="1.0" cx="0" cy="0" rx="4" ry="4" fill="#FFF" stroke="#333" stroke-width="1.0" />
					
				</g>
				
			</g>
			
		</g>
		<g id="_taidwJOZEDS4G-hGacah5Q">
			<polyline stroke-dasharray="4, 4" fill="none" stroke-width="1" stroke="#333" points="743,222 743,222" />
			
		</g>
		<g id="_taidwJOZEDS4G-hGacah5Q">
			<polyline stroke-dasharray="4, 4" fill="none" stroke-width="1" stroke="#333" points="743,222 743,128" />
			<g transform="translate(743,128)">
				<g transform="rotate(0)">
					<polyline fill="#FFF" stroke-width="1" stroke="#7E7E7E" points="-6,10 0,1 6,10 -6,10" />
					
				</g>
				
			</g>
			
		</g>
		<g id="_zmcmYJOZEDS4G-hGacah5Q">
			<polyline fill="none" stroke-width="1" stroke="#7E7E7E" points="803,97 824,97" />
			
		</g>
		<g id="_zmcmYJOZEDS4G-hGacah5Q">
			<polyline fill="none" stroke-width="1" stroke="#7E7E7E" points="824,97 824,97" />
			
		</g>
		<g id="_zmcmYJOZEDS4G-hGacah5Q">
			<polyline fill="none" stroke-width="1" stroke="#7E7E7E" points="824,97 845,97" />
			<g transform="translate(845,97)">
				<g transform="rotate(90)">
					<polyline fill="#000" stroke-width="1" stroke="#7E7E7E" points="-4,12 0,1 4,12 -4,12" />
					
				</g>
				
			</g>
			
		</g>
		<text y="426" font-size="11" text-anchor="middle" fill="#000000">
			<tspan x="532" dy="11">port forward</tspan>
			<tspan x="532" dy="11">parameters:</tspan>
			<tspan x="532" dy="11">localhost:22</tspan>
			
		</text>
		<text y="299" font-size="11" text-anchor="middle" fill="#000000">
			<tspan x="605" dy="11">wait for</tspan>
			<tspan x="605" dy="11">connection</tspan>
			
		</text>
		<text y="367" font-size="11" text-anchor="middle" fill="#000000">
			<tspan x="886" dy="11">close</tspan>
			<tspan x="886" dy="11">channel</tspan>
			
		</text>
		<text y="574" font-size="11" text-anchor="middle" fill="#000000">
			<tspan x="885" dy="11">close</tspan>
			<tspan x="885" dy="11">connection to</tspan>
			<tspan x="885" dy="11">requested</tspan>
			<tspan x="885" dy="11">host:port</tspan>
			
		</text>
		<text y="574" font-size="11" text-anchor="middle" fill="#000000">
			<tspan x="157" dy="11">launch SSH</tspan>
			<tspan x="157" dy="11">client with -R</tspan>
			
		</text>
		<text y="574" font-size="11" text-anchor="middle" fill="#000000">
			<tspan x="420" dy="11">wait for</tspan>
			<tspan x="420" dy="11">connection</tspan>
			<tspan x="420" dy="11">channel</tspan>
			<tspan x="420" dy="11">event</tspan>
			
		</text>
		<text y="119" font-size="11" text-anchor="middle" fill="#000000">
			<tspan x="217" dy="11">launch</tspan>
			<tspan x="217" dy="11">PuTTY to</tspan>
			<tspan x="217" dy="11">connect to</tspan>
			<tspan x="217" dy="11">port ????</tspan>
			<tspan x="217" dy="11">sshto.net</tspan>
			
		</text>
		<text y="289" font-size="11" text-anchor="middle" fill="#000000">
			<tspan x="158" dy="11">SSH</tspan>
			<tspan x="158" dy="11">connection</tspan>
			<tspan x="158" dy="11">accepted</tspan>
			
		</text>
		<text y="366" font-size="11" text-anchor="middle" fill="#000000">
			<tspan x="267" dy="11">wait connect</tspan>
			<tspan x="267" dy="11">to port ????</tspan>
			<tspan x="267" dy="11">of server</tspan>
			<tspan x="267" dy="11">sshto.net</tspan>
			
		</text>
		<text y="118" font-size="11" text-anchor="middle" fill="#000000">
			<tspan x="863" dy="11">End</tspan>
			
		</text>
		<text y="347" font-size="11" text-anchor="middle" fill="#000000">
			<tspan x="578" dy="11"> </tspan>
			
		</text>
		<text y="445" font-size="11" text-anchor="middle" fill="#000000">
			<tspan x="629" dy="11"> </tspan>
			
		</text>
		<text y="555" font-size="11" text-anchor="middle" fill="#000000">
			<tspan x="719" dy="11"> </tspan>
			
		</text>
		<text y="347" font-size="11" text-anchor="middle" fill="#000000">
			<tspan x="693" dy="11"> </tspan>
			
		</text>
		<text y="409" font-size="11" text-anchor="middle" fill="#000000">
			<tspan x="816" dy="11">SSHv2</tspan>
			<tspan x="816" dy="11">protocol with</tspan>
			<tspan x="816" dy="11">raw channel </tspan>
			<tspan x="816" dy="11">data</tspan>
			
		</text>
		<text y="435" font-size="11" text-anchor="middle" fill="#000000">
			<tspan x="794" dy="11"> </tspan>
			
		</text>
		<text y="348" font-size="11" text-anchor="middle" fill="#000000">
			<tspan x="861" dy="11"> </tspan>
			
		</text>
		<text y="555" font-size="11" text-anchor="middle" fill="#000000">
			<tspan x="860" dy="11"> </tspan>
			
		</text>
		<text y="463" font-size="11" text-anchor="middle" fill="#000000">
			<tspan x="444" dy="11"> </tspan>
			
		</text>
		<text y="555" font-size="11" text-anchor="middle" fill="#000000">
			<tspan x="511" dy="11"> </tspan>
			
		</text>
		<text y="100" font-size="11" text-anchor="middle" fill="#000000">
			<tspan x="316" dy="11"> </tspan>
			
		</text>
		<text y="555" font-size="11" text-anchor="middle" fill="#000000">
			<tspan x="237" dy="11"> </tspan>
			
		</text>
		<text y="555" font-size="11" text-anchor="middle" fill="#000000">
			<tspan x="396" dy="11"> </tspan>
			
		</text>
		<text y="348" font-size="11" text-anchor="middle" fill="#000000">
			<tspan x="237" dy="11"> </tspan>
			
		</text>
		<text y="347" font-size="11" text-anchor="middle" fill="#000000">
			<tspan x="341" dy="11"> </tspan>
			
		</text>
		<text y="188" font-size="11" text-anchor="middle" fill="#000000">
			<tspan x="354" dy="11"> </tspan>
			
		</text>
		<text y="446" font-size="11" text-anchor="middle" fill="#000000">
			<tspan x="251" dy="11"> </tspan>
			
		</text>
		<text y="100" font-size="11" text-anchor="middle" fill="#000000">
			<tspan x="601" dy="11"> </tspan>
			
		</text>
		<text y="224" font-size="11" text-anchor="middle" fill="#000000">
			<tspan x="793" dy="11"> </tspan>
			
		</text>
		<text y="166" font-size="11" text-anchor="middle" fill="#000000">
			<tspan x="718" dy="11">PuTTY</tspan>
			<tspan x="718" dy="11">data</tspan>
			
		</text>
		<text y="99" font-size="11" text-anchor="middle" fill="#000000">
			<tspan x="849" dy="11"> </tspan>
			
		</text>
		
	</g>
	
</svg>
