<?xml version="1.0" encoding="utf-8"?>
<!DOCTYPE svg PUBLIC "-//W3C//DTD SVG 1.1//EN"  "http://www.w3.org/Graphics/SVG/1.1/DTD/svg11.dtd">
<svg version="1.1" xmlns="http://www.w3.org/2000/svg" xmlns:xlink="http://www.w3.org/1999/xlink" font-family="Arial" font-size="11" width="1043" height="689">
	<desc>BPMN2 diagram model</desc>
	<g id="_Z4mVA7FiEealN5YbbDMqoA">
		<defs>
			<linearGradient id="greyGradient" x1="0%" y1="0%" x2="0%" y2="100%" spreadMethod="pad">
				<stop offset="0%" stop-color="#FFF" stop-opacity="1" />
				<stop offset="100%" stop-color="#E5E5E5" stop-opacity="1" />
				
			</linearGradient>
			<linearGradient id="packageGradient" x1="0%" y1="0%" x2="0%" y2="100%" spreadMethod="pad">
				<stop offset="0%" stop-color="#FFF" stop-opacity="1" />
				<stop offset="100%" stop-color="#EFE9DE" stop-opacity="1" />
				
			</linearGradient>
			<linearGradient id="EndEvent" x1="0%" y1="0%" x2="0%" y2="100%" spreadMethod="pad">
				<stop offset="0%" stop-color="#E59492" stop-opacity="1" />
				<stop offset="100%" stop-color="#F27572" stop-opacity="1" />
				
			</linearGradient>
			<linearGradient id="StartEvent" x1="0%" y1="0%" x2="0%" y2="100%" spreadMethod="pad">
				<stop offset="0%" stop-color="#60E496" stop-opacity="1" />
				<stop offset="100%" stop-color="#31A761" stop-opacity="1" />
				
			</linearGradient>
			<linearGradient id="TaskWidget" x1="0%" y1="0%" x2="0%" y2="100%" spreadMethod="pad">
				<stop offset="0%" stop-color="#F5F7F9" stop-opacity="1" />
				<stop offset="100%" stop-color="#D9EDF7" stop-opacity="1" />
				
			</linearGradient>
			<linearGradient id="IntermediateEvent" x1="0%" y1="0%" x2="0%" y2="100%" spreadMethod="pad">
				<stop offset="0%" stop-color="#F5F7F9" stop-opacity="1" />
				<stop offset="100%" stop-color="#D9EDF7" stop-opacity="1" />
				
			</linearGradient>
			<linearGradient id="DataObjectReferenceWidget" x1="0%" y1="0%" x2="0%" y2="100%" spreadMethod="pad">
				<stop offset="0%" stop-color="#FFF" stop-opacity="1" />
				<stop offset="100%" stop-color="#F5FFFE" stop-opacity="1" />
				
			</linearGradient>
			
		</defs>
		<g id="_clW_cJOQEDSJ0-fnOEkhXA" transform="translate(50 237)">
			<rect fill-opacity="0.5" x="0" y="0" width="953" height="412" rx="0" ry="0" fill="#fff" stroke="#ADADAD" stroke-width="1" />
			<line x1="31" y1="0" x2="31" y2="412" stroke-width="1.0" stroke="#ADADAD" />
			<text x="-206" y="20" font-size="13" text-anchor="middle" fill="#000000" transform="rotate(270)">SSH Local port forward (-L locahost:8000:localhost:8080)</text>
			<g id="_dDqFAJOQEDSJ0-fnOEkhXA" transform="translate(32 0)">
				<text x="-105" y="20" font-size="12" text-anchor="middle" fill="#000000" transform="rotate(270)">SSH client</text>
				
			</g>
			<g id="_f_vboJOQEDSJ0-fnOEkhXA" transform="translate(32 210)">
				<line x1="0" y1="0" x2="920" y2="0" stroke-width="1.0" stroke="#ADADAD" />
				<text x="-100" y="20" font-size="12" text-anchor="middle" fill="#000000" transform="rotate(270)">SSH server</text>
				
			</g>
			
		</g>
		<g id="_ThEI4ZOaEDSHkJs4IRtrCw" transform="translate(50 20)">
			<rect fill-opacity="0.5" x="0" y="0" width="953" height="202" rx="0" ry="0" fill="#fff" stroke="#ADADAD" stroke-width="1" />
			<line x1="31" y1="0" x2="31" y2="202" stroke-width="1.0" stroke="#ADADAD" />
			<text x="-101" y="20" font-size="13" text-anchor="middle" fill="#000000" transform="rotate(270)">User</text>
			
		</g>
		<g id="_8ITBwJOQEDSJ0-fnOEkhXA" transform="translate(428 279)">
			<rect x="0" y="0" width="170" height="80" rx="3" ry="0" fill="url(#TaskWidget)" stroke="#325A6E" stroke-width="1" />
			<text y="22" text-anchor="middle" fill="#000000">
				<tspan x="86" dy="11">send task to connect to host:port</tspan>
				<tspan x="86" dy="11">on remote machine (create</tspan>
				<tspan x="86" dy="11">channel)</tspan>
				
			</text>
			
		</g>
		<g id="_HG7SgJOREDSJ0-fnOEkhXA" transform="translate(599 511)">
			<rect x="0" y="0" width="140" height="60" rx="3" ry="0" fill="url(#TaskWidget)" stroke="#325A6E" stroke-width="1" />
			<text y="18" text-anchor="middle" fill="#000000">
				<tspan x="71" dy="11">establish a connection to</tspan>
				<tspan x="71" dy="11">requested host:port</tspan>
				
			</text>
			
		</g>
		<g id="_MOHOwJOREDSJ0-fnOEkhXA" transform="translate(530 388)">
			<path d="M1 1L18.0 1L29 12.0L29 39L1 39L1 1" fill="url(#DataObjectReferenceWidget)" stroke-width="1" stroke="#888888" />
			<path fill-opacity="0.0" d="M18.0 1L18.0 12.0L29 12.0" fill="#fff" stroke-width="1" stroke="#888888" />
			
		</g>
		<g id="_jMM7IJOREDSJ0-fnOEkhXA" transform="translate(661 301)">
			<ellipse cx="17" cy="17" rx="15" ry="15" fill="url(#IntermediateEvent)" stroke="#325A6E" stroke-width="1.0" />
			<ellipse fill-opacity="0.0" cx="17" cy="17" rx="12" ry="12" fill="#fff" stroke="#325A6E" stroke-width="1.0" />
			<g>
				<path fill-opacity="0.7" d="M8.75 12.25L26.25 12.25L26.25 22.75L8.75 22.75L8.75 12.25" fill="#fff" stroke-width="1" stroke="#325A6E" />
				<path fill-opacity="0.0" d="M8.75 12.25L17.5 17.5L26.25 12.25" fill="#fff" stroke-width="1" stroke="#325A6E" />
				
			</g>
			
		</g>
		<g id="_ssT_cJOREDSJ0-fnOEkhXA" transform="translate(787 289)">
			<rect x="0" y="0" width="90" height="60" rx="3" ry="0" fill="url(#TaskWidget)" stroke="#325A6E" stroke-width="1" />
			<text y="23" text-anchor="middle" fill="#000000">
				<tspan x="46" dy="11">transmit data</tspan>
				
			</text>
			
		</g>
		<g id="_xS364JOREDSJ0-fnOEkhXA" transform="translate(787 289)">
			<rect x="0" y="0" width="90" height="60" rx="3" ry="0" fill="url(#TaskWidget)" stroke="#325A6E" stroke-width="1" />
			<text y="23" text-anchor="middle" fill="#000000">
				<tspan x="46" dy="11">transmit data</tspan>
				
			</text>
			
		</g>
		<g id="_x6LLcJOREDSJ0-fnOEkhXA" transform="translate(787 289)">
			<rect x="0" y="0" width="90" height="60" rx="3" ry="0" fill="url(#TaskWidget)" stroke="#325A6E" stroke-width="1" />
			<text y="23" text-anchor="middle" fill="#000000">
				<tspan x="46" dy="11">transmit data</tspan>
				
			</text>
			
		</g>
		<g id="_ynEtsJOREDSJ0-fnOEkhXA" transform="translate(787 511)">
			<rect x="0" y="0" width="90" height="60" rx="3" ry="0" fill="url(#TaskWidget)" stroke="#325A6E" stroke-width="1" />
			<text y="23" text-anchor="middle" fill="#000000">
				<tspan x="46" dy="11">transmit data</tspan>
				
			</text>
			
		</g>
		<g id="_61MlsJOREDSJ0-fnOEkhXA" transform="translate(942 302)">
			<ellipse cx="17" cy="17" rx="16" ry="16" fill="url(#EndEvent)" stroke="#7A2220" stroke-width="2.0" />
			
		</g>
		<g id="_BZG-oJOSEDSJ0-fnOEkhXA" transform="translate(932 524)">
			<ellipse cx="17" cy="17" rx="16" ry="16" fill="url(#EndEvent)" stroke="#7A2220" stroke-width="2.0" />
			
		</g>
		<g id="_sLWYsJOXEDSHkJs4IRtrCw" transform="translate(348 302)">
			<ellipse cx="17" cy="17" rx="15" ry="15" fill="url(#IntermediateEvent)" stroke="#325A6E" stroke-width="1.0" />
			<ellipse fill-opacity="0.0" cx="17" cy="17" rx="12" ry="12" fill="#fff" stroke="#325A6E" stroke-width="1.0" />
			<g>
				<path fill-opacity="0.7" d="M8.75 12.25L26.25 12.25L26.25 22.75L8.75 22.75L8.75 12.25" fill="#fff" stroke-width="1" stroke="#325A6E" />
				<path fill-opacity="0.0" d="M8.75 12.25L17.5 17.5L26.25 12.25" fill="#fff" stroke-width="1" stroke="#325A6E" />
				
			</g>
			
		</g>
		<g id="_4AbwUJOXEDSHkJs4IRtrCw" transform="translate(131 301)">
			<ellipse cx="17" cy="17" rx="15" ry="15" fill="url(#StartEvent)" stroke="#216B3F" stroke-width="1.0" />
			
		</g>
		<g id="_ZOsaEJOaEDSHkJs4IRtrCw" transform="translate(475 524)">
			<ellipse cx="17" cy="17" rx="15" ry="15" fill="url(#IntermediateEvent)" stroke="#325A6E" stroke-width="1.0" />
			<ellipse fill-opacity="0.0" cx="17" cy="17" rx="12" ry="12" fill="#fff" stroke="#325A6E" stroke-width="1.0" />
			<g>
				<path fill-opacity="0.7" d="M8.75 12.25L26.25 12.25L26.25 22.75L8.75 22.75L8.75 12.25" fill="#fff" stroke-width="1" stroke="#325A6E" />
				<path fill-opacity="0.0" d="M8.75 12.25L17.5 17.5L26.25 12.25" fill="#fff" stroke-width="1" stroke="#325A6E" />
				
			</g>
			
		</g>
		<g id="_iaNHYJOaEDSHkJs4IRtrCw" transform="translate(211 289)">
			<rect x="0" y="0" width="90" height="60" rx="3" ry="0" fill="url(#TaskWidget)" stroke="#325A6E" stroke-width="1" />
			<text y="12" text-anchor="middle" fill="#000000">
				<tspan x="46" dy="11">establish</tspan>
				<tspan x="46" dy="11">connection to</tspan>
				<tspan x="46" dy="11">SSH server</tspan>
				
			</text>
			
		</g>
		<g id="_nA8pAJOaEDSHkJs4IRtrCw" transform="translate(239 525)">
			<ellipse cx="17" cy="17" rx="15" ry="15" fill="url(#StartEvent)" stroke="#216B3F" stroke-width="1.0" />
			<g>
				<path fill-opacity="0.7" d="M8.75 12.25L26.25 12.25L26.25 22.75L8.75 22.75L8.75 12.25" fill="#fff" stroke-width="1" stroke="#194F2F" />
				<path fill-opacity="0.0" d="M8.75 12.25L17.5 17.5L26.25 12.25" fill="#fff" stroke-width="1" stroke="#194F2F" />
				
			</g>
			
		</g>
		<g id="_qKudYJOaEDSHkJs4IRtrCw" transform="translate(239 83)">
			<ellipse cx="17" cy="17" rx="15" ry="15" fill="url(#StartEvent)" stroke="#216B3F" stroke-width="1.0" />
			
		</g>
		<g id="_8SJ80JOaEDSHkJs4IRtrCw" transform="translate(397 71)">
			<rect x="0" y="0" width="90" height="60" rx="3" ry="0" fill="url(#TaskWidget)" stroke="#325A6E" stroke-width="1" />
			<text y="12" text-anchor="middle" fill="#000000">
				<tspan x="46" dy="11">browser</tspan>
				<tspan x="46" dy="11">establishes</tspan>
				<tspan x="46" dy="11">connection</tspan>
				
			</text>
			
		</g>
		<g id="_ChbigJObEDSHkJs4IRtrCw" transform="translate(787 71)">
			<rect x="0" y="0" width="90" height="60" rx="3" ry="0" fill="url(#TaskWidget)" stroke="#325A6E" stroke-width="1" />
			<text y="18" text-anchor="middle" fill="#000000">
				<tspan x="46" dy="11">browser gets</tspan>
				<tspan x="46" dy="11">web page</tspan>
				
			</text>
			
		</g>
		<g id="_SYOAkZOREDSJ0-fnOEkhXA">
			<polyline stroke-dasharray="1, 4" fill="none" stroke-width="1" stroke="#7E7E7E" points="537,388 527,359" />
			<g transform="translate(527,359)">
				<g transform="rotate(-19)">
					<polyline fill="none" stroke-width="1" stroke="#000" points="-4,7 0,0 4,7" />
					
				</g>
				
			</g>
			
		</g>
		<g id="_cGbLQ5OREDSJ0-fnOEkhXA">
			<polyline stroke-dasharray="1, 4" fill="none" stroke-width="1" stroke="#7E7E7E" points="560,424 641,511" />
			<g transform="translate(641,511)">
				<g transform="rotate(137)">
					<polyline fill="none" stroke-width="1" stroke="#000" points="-4,7 0,0 4,7" />
					
				</g>
				
			</g>
			
		</g>
		<g id="_kvTsoJOREDSJ0-fnOEkhXA">
			<polyline fill="none" stroke-width="1" stroke="#7E7E7E" points="598,318 629,318" />
			
		</g>
		<g id="_kvTsoJOREDSJ0-fnOEkhXA">
			<polyline fill="none" stroke-width="1" stroke="#7E7E7E" points="629,318 630,318" />
			
		</g>
		<g id="_kvTsoJOREDSJ0-fnOEkhXA">
			<polyline fill="none" stroke-width="1" stroke="#7E7E7E" points="630,318 661,318" />
			<g transform="translate(661,318)">
				<g transform="rotate(90)">
					<polyline fill="#000" stroke-width="1" stroke="#7E7E7E" points="-4,12 0,1 4,12 -4,12" />
					
				</g>
				
			</g>
			
		</g>
		<g id="_nQTCsJOREDSJ0-fnOEkhXA">
			<polyline stroke-dasharray="4, 4" fill="none" stroke-width="1" stroke="#333" points="678,511 678,423" />
			<g transform="translate(678,511)">
				<g transform="rotate(-180)">
					<ellipse fill-opacity="1.0" cx="0" cy="0" rx="4" ry="4" fill="#FFF" stroke="#333" stroke-width="1.0" />
					
				</g>
				
			</g>
			
		</g>
		<g id="_nQTCsJOREDSJ0-fnOEkhXA">
			<polyline stroke-dasharray="4, 4" fill="none" stroke-width="1" stroke="#333" points="678,423 678,424" />
			
		</g>
		<g id="_nQTCsJOREDSJ0-fnOEkhXA">
			<polyline stroke-dasharray="4, 4" fill="none" stroke-width="1" stroke="#333" points="678,424 678,336" />
			<g transform="translate(678,336)">
				<g transform="rotate(0)">
					<polyline fill="#FFF" stroke-width="1" stroke="#7E7E7E" points="-6,10 0,1 6,10 -6,10" />
					
				</g>
				
			</g>
			
		</g>
		<g id="_0BAVEJOREDSJ0-fnOEkhXA">
			<polyline fill="none" stroke-width="1" stroke="#7E7E7E" points="739,541 763,541" />
			
		</g>
		<g id="_0BAVEJOREDSJ0-fnOEkhXA">
			<polyline fill="none" stroke-width="1" stroke="#7E7E7E" points="763,541 763,541" />
			
		</g>
		<g id="_0BAVEJOREDSJ0-fnOEkhXA">
			<polyline fill="none" stroke-width="1" stroke="#7E7E7E" points="763,541 787,541" />
			<g transform="translate(787,541)">
				<g transform="rotate(90)">
					<polyline fill="#000" stroke-width="1" stroke="#7E7E7E" points="-4,12 0,1 4,12 -4,12" />
					
				</g>
				
			</g>
			
		</g>
		<g id="_0bZLAJOREDSJ0-fnOEkhXA">
			<polyline fill="none" stroke-width="1" stroke="#7E7E7E" points="696,318 741,318" />
			
		</g>
		<g id="_0bZLAJOREDSJ0-fnOEkhXA">
			<polyline fill="none" stroke-width="1" stroke="#7E7E7E" points="741,318 742,318" />
			
		</g>
		<g id="_0bZLAJOREDSJ0-fnOEkhXA">
			<polyline fill="none" stroke-width="1" stroke="#7E7E7E" points="742,318 787,318" />
			<g transform="translate(787,318)">
				<g transform="rotate(90)">
					<polyline fill="#000" stroke-width="1" stroke="#7E7E7E" points="-4,12 0,1 4,12 -4,12" />
					
				</g>
				
			</g>
			
		</g>
		<g id="_2dC5sJOREDSJ0-fnOEkhXA">
			<polyline stroke-dasharray="4, 4" fill="none" stroke-width="1" stroke="#333" points="812,349 812,430" />
			<g transform="translate(812,349)">
				<g transform="rotate(0)">
					<ellipse fill-opacity="1.0" cx="0" cy="0" rx="4" ry="4" fill="#FFF" stroke="#333" stroke-width="1.0" />
					
				</g>
				
			</g>
			
		</g>
		<g id="_2dC5sJOREDSJ0-fnOEkhXA">
			<polyline stroke-dasharray="4, 4" fill="none" stroke-width="1" stroke="#333" points="812,430 812,430" />
			
		</g>
		<g id="_2dC5sJOREDSJ0-fnOEkhXA">
			<polyline stroke-dasharray="4, 4" fill="none" stroke-width="1" stroke="#333" points="812,430 812,511" />
			<g transform="translate(812,511)">
				<g transform="rotate(-180)">
					<polyline fill="#FFF" stroke-width="1" stroke="#7E7E7E" points="-6,10 0,1 6,10 -6,10" />
					
				</g>
				
			</g>
			
		</g>
		<g id="_3kV48JOREDSJ0-fnOEkhXA">
			<polyline stroke-dasharray="4, 4" fill="none" stroke-width="1" stroke="#333" points="853,511 853,430" />
			<g transform="translate(853,511)">
				<g transform="rotate(-180)">
					<ellipse fill-opacity="1.0" cx="0" cy="0" rx="4" ry="4" fill="#FFF" stroke="#333" stroke-width="1.0" />
					
				</g>
				
			</g>
			
		</g>
		<g id="_3kV48JOREDSJ0-fnOEkhXA">
			<polyline stroke-dasharray="4, 4" fill="none" stroke-width="1" stroke="#333" points="853,430 853,430" />
			
		</g>
		<g id="_3kV48JOREDSJ0-fnOEkhXA">
			<polyline stroke-dasharray="4, 4" fill="none" stroke-width="1" stroke="#333" points="853,430 853,349" />
			<g transform="translate(853,349)">
				<g transform="rotate(0)">
					<polyline fill="#FFF" stroke-width="1" stroke="#7E7E7E" points="-6,10 0,1 6,10 -6,10" />
					
				</g>
				
			</g>
			
		</g>
		<g id="_A2W24JOSEDSJ0-fnOEkhXA">
			<polyline fill="none" stroke-width="1" stroke="#7E7E7E" points="877,319 909,319" />
			
		</g>
		<g id="_A2W24JOSEDSJ0-fnOEkhXA">
			<polyline fill="none" stroke-width="1" stroke="#7E7E7E" points="909,319 910,319" />
			
		</g>
		<g id="_A2W24JOSEDSJ0-fnOEkhXA">
			<polyline fill="none" stroke-width="1" stroke="#7E7E7E" points="910,319 942,319" />
			<g transform="translate(942,319)">
				<g transform="rotate(90)">
					<polyline fill="#000" stroke-width="1" stroke="#7E7E7E" points="-4,12 0,1 4,12 -4,12" />
					
				</g>
				
			</g>
			
		</g>
		<g id="_FuRoEJOSEDSJ0-fnOEkhXA">
			<polyline fill="none" stroke-width="1" stroke="#7E7E7E" points="877,541 904,541" />
			
		</g>
		<g id="_FuRoEJOSEDSJ0-fnOEkhXA">
			<polyline fill="none" stroke-width="1" stroke="#7E7E7E" points="904,541 905,541" />
			
		</g>
		<g id="_FuRoEJOSEDSJ0-fnOEkhXA">
			<polyline fill="none" stroke-width="1" stroke="#7E7E7E" points="905,541 932,541" />
			<g transform="translate(932,541)">
				<g transform="rotate(90)">
					<polyline fill="#000" stroke-width="1" stroke="#7E7E7E" points="-4,12 0,1 4,12 -4,12" />
					
				</g>
				
			</g>
			
		</g>
		<g id="_tYT7EJOXEDSHkJs4IRtrCw">
			<polyline fill="none" stroke-width="1" stroke="#7E7E7E" points="383,319 405,319" />
			
		</g>
		<g id="_tYT7EJOXEDSHkJs4IRtrCw">
			<polyline fill="none" stroke-width="1" stroke="#7E7E7E" points="405,319 406,319" />
			
		</g>
		<g id="_tYT7EJOXEDSHkJs4IRtrCw">
			<polyline fill="none" stroke-width="1" stroke="#7E7E7E" points="406,319 428,319" />
			<g transform="translate(428,319)">
				<g transform="rotate(90)">
					<polyline fill="#000" stroke-width="1" stroke="#7E7E7E" points="-4,12 0,1 4,12 -4,12" />
					
				</g>
				
			</g>
			
		</g>
		<g id="_6GhTEJOXEDSHkJs4IRtrCw">
			<polyline fill="none" stroke-width="1" stroke="#7E7E7E" points="166,318 188,318" />
			
		</g>
		<g id="_6GhTEJOXEDSHkJs4IRtrCw">
			<polyline fill="none" stroke-width="1" stroke="#7E7E7E" points="188,318 189,318" />
			
		</g>
		<g id="_6GhTEJOXEDSHkJs4IRtrCw">
			<polyline fill="none" stroke-width="1" stroke="#7E7E7E" points="189,318 211,318" />
			<g transform="translate(211,318)">
				<g transform="rotate(90)">
					<polyline fill="#000" stroke-width="1" stroke="#7E7E7E" points="-4,12 0,1 4,12 -4,12" />
					
				</g>
				
			</g>
			
		</g>
		<g id="_aCiR0JOaEDSHkJs4IRtrCw">
			<polyline fill="none" stroke-width="1" stroke="#7E7E7E" points="510,541 554,541" />
			
		</g>
		<g id="_aCiR0JOaEDSHkJs4IRtrCw">
			<polyline fill="none" stroke-width="1" stroke="#7E7E7E" points="554,541 555,541" />
			
		</g>
		<g id="_aCiR0JOaEDSHkJs4IRtrCw">
			<polyline fill="none" stroke-width="1" stroke="#7E7E7E" points="555,541 599,541" />
			<g transform="translate(599,541)">
				<g transform="rotate(90)">
					<polyline fill="#000" stroke-width="1" stroke="#7E7E7E" points="-4,12 0,1 4,12 -4,12" />
					
				</g>
				
			</g>
			
		</g>
		<g id="_aZA4IJOaEDSHkJs4IRtrCw">
			<polyline stroke-dasharray="4, 4" fill="none" stroke-width="1" stroke="#333" points="492,359 492,442" />
			<g transform="translate(492,359)">
				<g transform="rotate(0)">
					<ellipse fill-opacity="1.0" cx="0" cy="0" rx="4" ry="4" fill="#FFF" stroke="#333" stroke-width="1.0" />
					
				</g>
				
			</g>
			
		</g>
		<g id="_aZA4IJOaEDSHkJs4IRtrCw">
			<polyline stroke-dasharray="4, 4" fill="none" stroke-width="1" stroke="#333" points="492,442 492,441" />
			
		</g>
		<g id="_aZA4IJOaEDSHkJs4IRtrCw">
			<polyline stroke-dasharray="4, 4" fill="none" stroke-width="1" stroke="#333" points="492,441 492,524" />
			<g transform="translate(492,524)">
				<g transform="rotate(-180)">
					<polyline fill="#FFF" stroke-width="1" stroke="#7E7E7E" points="-6,10 0,1 6,10 -6,10" />
					
				</g>
				
			</g>
			
		</g>
		<g id="_iaVDMJOaEDSHkJs4IRtrCw">
			<polyline fill="none" stroke-width="1" stroke="#7E7E7E" points="301,319 324,319" />
			
		</g>
		<g id="_iaVDMJOaEDSHkJs4IRtrCw">
			<polyline fill="none" stroke-width="1" stroke="#7E7E7E" points="324,319 325,319" />
			
		</g>
		<g id="_iaVDMJOaEDSHkJs4IRtrCw">
			<polyline fill="none" stroke-width="1" stroke="#7E7E7E" points="325,319 348,319" />
			<g transform="translate(348,319)">
				<g transform="rotate(90)">
					<polyline fill="#000" stroke-width="1" stroke="#7E7E7E" points="-4,12 0,1 4,12 -4,12" />
					
				</g>
				
			</g>
			
		</g>
		<g id="_oB2sYJOaEDSHkJs4IRtrCw">
			<polyline stroke-dasharray="4, 4" fill="none" stroke-width="1" stroke="#333" points="256,349 256,437" />
			<g transform="translate(256,349)">
				<g transform="rotate(0)">
					<ellipse fill-opacity="1.0" cx="0" cy="0" rx="4" ry="4" fill="#FFF" stroke="#333" stroke-width="1.0" />
					
				</g>
				
			</g>
			
		</g>
		<g id="_oB2sYJOaEDSHkJs4IRtrCw">
			<polyline stroke-dasharray="4, 4" fill="none" stroke-width="1" stroke="#333" points="256,437 256,437" />
			
		</g>
		<g id="_oB2sYJOaEDSHkJs4IRtrCw">
			<polyline stroke-dasharray="4, 4" fill="none" stroke-width="1" stroke="#333" points="256,437 256,525" />
			<g transform="translate(256,525)">
				<g transform="rotate(-180)">
					<polyline fill="#FFF" stroke-width="1" stroke="#7E7E7E" points="-6,10 0,1 6,10 -6,10" />
					
				</g>
				
			</g>
			
		</g>
		<g id="_ojXeAJOaEDSHkJs4IRtrCw">
			<polyline fill="none" stroke-width="1" stroke="#7E7E7E" points="274,542 374,542" />
			
		</g>
		<g id="_ojXeAJOaEDSHkJs4IRtrCw">
			<polyline fill="none" stroke-width="1" stroke="#7E7E7E" points="374,542 375,542" />
			
		</g>
		<g id="_ojXeAJOaEDSHkJs4IRtrCw">
			<polyline fill="none" stroke-width="1" stroke="#7E7E7E" points="375,542 475,542" />
			<g transform="translate(475,542)">
				<g transform="rotate(90)">
					<polyline fill="#000" stroke-width="1" stroke="#7E7E7E" points="-4,12 0,1 4,12 -4,12" />
					
				</g>
				
			</g>
			
		</g>
		<g id="_-PcI4JOaEDSHkJs4IRtrCw">
			<polyline fill="none" stroke-width="1" stroke="#7E7E7E" points="274,100 335,100" />
			
		</g>
		<g id="_-PcI4JOaEDSHkJs4IRtrCw">
			<polyline fill="none" stroke-width="1" stroke="#7E7E7E" points="335,100 336,100" />
			
		</g>
		<g id="_-PcI4JOaEDSHkJs4IRtrCw">
			<polyline fill="none" stroke-width="1" stroke="#7E7E7E" points="336,100 397,100" />
			<g transform="translate(397,100)">
				<g transform="rotate(90)">
					<polyline fill="#000" stroke-width="1" stroke="#7E7E7E" points="-4,12 0,1 4,12 -4,12" />
					
				</g>
				
			</g>
			
		</g>
		<g id="_-26_oJOaEDSHkJs4IRtrCw">
			<polyline stroke-dasharray="4, 4" fill="none" stroke-width="1" stroke="#333" points="442,131 442,185" />
			<g transform="translate(442,131)">
				<g transform="rotate(0)">
					<ellipse fill-opacity="1.0" cx="0" cy="0" rx="4" ry="4" fill="#FFF" stroke="#333" stroke-width="1.0" />
					
				</g>
				
			</g>
			
		</g>
		<g id="_-26_oJOaEDSHkJs4IRtrCw">
			<polyline stroke-dasharray="4, 4" fill="none" stroke-width="1" stroke="#333" points="442,185 363,184" />
			
		</g>
		<g id="_-26_oJOaEDSHkJs4IRtrCw">
			<polyline stroke-dasharray="4, 4" fill="none" stroke-width="1" stroke="#333" points="363,184 363,302" />
			<g transform="translate(363,302)">
				<g transform="rotate(-180)">
					<polyline fill="#FFF" stroke-width="1" stroke="#7E7E7E" points="-6,10 0,1 6,10 -6,10" />
					
				</g>
				
			</g>
			
		</g>
		<g id="_EfgYwJObEDSHkJs4IRtrCw">
			<polyline fill="none" stroke-width="1" stroke="#7E7E7E" points="487,101 637,101" />
			
		</g>
		<g id="_EfgYwJObEDSHkJs4IRtrCw">
			<polyline fill="none" stroke-width="1" stroke="#7E7E7E" points="637,101 637,101" />
			
		</g>
		<g id="_EfgYwJObEDSHkJs4IRtrCw">
			<polyline fill="none" stroke-width="1" stroke="#7E7E7E" points="637,101 787,101" />
			<g transform="translate(787,101)">
				<g transform="rotate(90)">
					<polyline fill="#000" stroke-width="1" stroke="#7E7E7E" points="-4,12 0,1 4,12 -4,12" />
					
				</g>
				
			</g>
			
		</g>
		<g id="_GXhDQJObEDSHkJs4IRtrCw">
			<polyline stroke-dasharray="4, 4" fill="none" stroke-width="1" stroke="#333" points="812,131 812,210" />
			<g transform="translate(812,131)">
				<g transform="rotate(0)">
					<ellipse fill-opacity="1.0" cx="0" cy="0" rx="4" ry="4" fill="#FFF" stroke="#333" stroke-width="1.0" />
					
				</g>
				
			</g>
			
		</g>
		<g id="_GXhDQJObEDSHkJs4IRtrCw">
			<polyline stroke-dasharray="4, 4" fill="none" stroke-width="1" stroke="#333" points="812,210 812,210" />
			
		</g>
		<g id="_GXhDQJObEDSHkJs4IRtrCw">
			<polyline stroke-dasharray="4, 4" fill="none" stroke-width="1" stroke="#333" points="812,210 812,289" />
			<g transform="translate(812,289)">
				<g transform="rotate(-180)">
					<polyline fill="#FFF" stroke-width="1" stroke="#7E7E7E" points="-6,10 0,1 6,10 -6,10" />
					
				</g>
				
			</g>
			
		</g>
		<g id="_GwmRoJObEDSHkJs4IRtrCw">
			<polyline stroke-dasharray="4, 4" fill="none" stroke-width="1" stroke="#333" points="852,289 852,210" />
			<g transform="translate(852,289)">
				<g transform="rotate(-180)">
					<ellipse fill-opacity="1.0" cx="0" cy="0" rx="4" ry="4" fill="#FFF" stroke="#333" stroke-width="1.0" />
					
				</g>
				
			</g>
			
		</g>
		<g id="_GwmRoJObEDSHkJs4IRtrCw">
			<polyline stroke-dasharray="4, 4" fill="none" stroke-width="1" stroke="#333" points="852,210 852,210" />
			
		</g>
		<g id="_GwmRoJObEDSHkJs4IRtrCw">
			<polyline stroke-dasharray="4, 4" fill="none" stroke-width="1" stroke="#333" points="852,210 852,131" />
			<g transform="translate(852,131)">
				<g transform="rotate(0)">
					<polyline fill="#FFF" stroke-width="1" stroke="#7E7E7E" points="-6,10 0,1 6,10 -6,10" />
					
				</g>
				
			</g>
			
		</g>
		<text y="390" font-size="11" text-anchor="middle" fill="#000000">
			<tspan x="610" dy="11">port forward</tspan>
			<tspan x="610" dy="11">parameters:</tspan>
			<tspan x="610" dy="11">localhost:8080</tspan>
			
		</text>
		<text y="272" font-size="11" text-anchor="middle" fill="#000000">
			<tspan x="679" dy="11">wait for</tspan>
			<tspan x="679" dy="11">connection</tspan>
			
		</text>
		<text y="340" font-size="11" text-anchor="middle" fill="#000000">
			<tspan x="960" dy="11">close</tspan>
			<tspan x="960" dy="11">channel</tspan>
			
		</text>
		<text y="562" font-size="11" text-anchor="middle" fill="#000000">
			<tspan x="950" dy="11">close</tspan>
			<tspan x="950" dy="11">connection to</tspan>
			<tspan x="950" dy="11">requested</tspan>
			<tspan x="950" dy="11">host:port</tspan>
			
		</text>
		<text y="340" font-size="11" text-anchor="middle" fill="#000000">
			<tspan x="366" dy="11">browser</tspan>
			<tspan x="366" dy="11">connects to</tspan>
			<tspan x="366" dy="11">port 8000 on</tspan>
			<tspan x="366" dy="11">localhost</tspan>
			
		</text>
		<text y="339" font-size="11" text-anchor="middle" fill="#000000">
			<tspan x="149" dy="11">client started</tspan>
			<tspan x="149" dy="11">with -L</tspan>
			
		</text>
		<text y="562" font-size="11" text-anchor="middle" fill="#000000">
			<tspan x="493" dy="11">wait for</tspan>
			<tspan x="493" dy="11">connection</tspan>
			<tspan x="493" dy="11">channel</tspan>
			<tspan x="493" dy="11">event</tspan>
			
		</text>
		<text y="563" font-size="11" text-anchor="middle" fill="#000000">
			<tspan x="257" dy="11">SSH</tspan>
			<tspan x="257" dy="11">connection</tspan>
			<tspan x="257" dy="11">accepted</tspan>
			
		</text>
		<text y="121" font-size="11" text-anchor="middle" fill="#000000">
			<tspan x="257" dy="11">Browser started with</tspan>
			<tspan x="257" dy="11">http://localhost:80</tspan>
			
		</text>
		<text y="320" font-size="11" text-anchor="middle" fill="#000000">
			<tspan x="655" dy="11"> </tspan>
			
		</text>
		<text y="426" font-size="11" text-anchor="middle" fill="#000000">
			<tspan x="703" dy="11"> </tspan>
			
		</text>
		<text y="543" font-size="11" text-anchor="middle" fill="#000000">
			<tspan x="788" dy="11"> </tspan>
			
		</text>
		<text y="320" font-size="11" text-anchor="middle" fill="#000000">
			<tspan x="767" dy="11"> </tspan>
			
		</text>
		<text y="459" font-size="11" text-anchor="middle" fill="#000000">
			<tspan x="786" dy="11"> </tspan>
			
		</text>
		<text y="391" font-size="11" text-anchor="middle" fill="#000000">
			<tspan x="898" dy="11">SSHv2 protocol</tspan>
			<tspan x="898" dy="11">with raw</tspan>
			<tspan x="898" dy="11">channel  data</tspan>
			
		</text>
		<text y="321" font-size="11" text-anchor="middle" fill="#000000">
			<tspan x="935" dy="11"> </tspan>
			
		</text>
		<text y="543" font-size="11" text-anchor="middle" fill="#000000">
			<tspan x="930" dy="11"> </tspan>
			
		</text>
		<text y="321" font-size="11" text-anchor="middle" fill="#000000">
			<tspan x="431" dy="11"> </tspan>
			
		</text>
		<text y="320" font-size="11" text-anchor="middle" fill="#000000">
			<tspan x="214" dy="11"> </tspan>
			
		</text>
		<text y="543" font-size="11" text-anchor="middle" fill="#000000">
			<tspan x="580" dy="11"> </tspan>
			
		</text>
		<text y="444" font-size="11" text-anchor="middle" fill="#000000">
			<tspan x="517" dy="11"> </tspan>
			
		</text>
		<text y="321" font-size="11" text-anchor="middle" fill="#000000"></text>
		<text y="439" font-size="11" text-anchor="middle" fill="#000000">
			<tspan x="281" dy="11"> </tspan>
			
		</text>
		<text y="544" font-size="11" text-anchor="middle" fill="#000000">
			<tspan x="400" dy="11"> </tspan>
			
		</text>
		<text y="102" font-size="11" text-anchor="middle" fill="#000000">
			<tspan x="361" dy="11"> </tspan>
			
		</text>
		<text y="187" font-size="11" text-anchor="middle" fill="#000000">
			<tspan x="428" dy="11"> </tspan>
			
		</text>
		<text y="103" font-size="11" text-anchor="middle" fill="#000000">
			<tspan x="662" dy="11"> </tspan>
			
		</text>
		<text y="175" font-size="11" text-anchor="middle" fill="#000000">
			<tspan x="787" dy="11">HTTP</tspan>
			<tspan x="787" dy="11">GET</tspan>
			
		</text>
		<text y="175" font-size="11" text-anchor="middle" fill="#000000">
			<tspan x="887" dy="11">HTTP/200</tspan>
			<tspan x="887" dy="11">Response</tspan>
			
		</text>
		
	</g>
	
</svg>
